<svg version="1.0" xmlns="http://www.w3.org/2000/svg"
 width="400.000000pt" height="400.000000pt" viewBox="0 0 400.000000 400.000000"
 preserveAspectRatio="xMidYMid meet">
<metadata>
Created by potrace 1.16, written by Peter Selinger 2001-2019
</metadata>
<g transform="translate(0.000000,400.000000) scale(0.100000,-0.100000)"
fill="#000000" stroke="none">
<path d="M2335 3359 c-246 -23 -382 -130 -431 -336 -14 -58 -15 -99 -8 -278
13 -300 11 -361 -10 -423 -23 -68 -62 -112 -134 -153 -73 -41 -98 -48 -205
-59 -49 -5 -90 -10 -91 -12 -1 -2 0 -47 2 -100 l4 -98 56 0 c109 0 246 -53
303 -116 49 -55 83 -128 75 -164 -3 -16 -6 -162 -6 -325 -1 -278 0 -299 20
-360 30 -90 75 -151 153 -208 56 -42 78 -51 159 -67 59 -13 134 -20 206 -20
l112 0 0 54 0 55 -47 5 c-88 11 -167 28 -193 41 -43 23 -87 77 -111 140 -23
58 -24 70 -25 345 l0 285 -29 80 c-59 168 -177 266 -371 311 -85 19 -99 26
-99 50 0 14 10 20 42 26 184 31 346 131 403 250 44 90 51 142 56 433 3 149 10
293 15 321 13 69 59 138 107 163 48 24 159 51 213 51 l39 0 0 60 0 60 -62 -1
c-35 -1 -99 -5 -143 -10z"/>
</g>
</svg>
